<?xml version="1.0" encoding="UTF-8" standalone="no"?>
<svg
		version="1.1"
		width="250.09563"
		height="179.86147"
		viewBox="0 0 250.09563 179.86147"
		xml:space="preserve"
		id="svg1012"
		xmlns="http://www.w3.org/2000/svg"
		xmlns:svg="http://www.w3.org/2000/svg">
	<g
			style="opacity:1;fill:none;fill-rule:nonzero;stroke:none;stroke-width:0;stroke-linecap:butt;stroke-linejoin:miter;stroke-miterlimit:10;stroke-dasharray:none"
			transform="matrix(2.81,0,0,2.81,-1.405,-36.519782)"
			id="g1010">
	<path
			d="m 66.183,77.004 c 0,0 -2.743,-3.277 -5.029,-6.172 9.982,-2.819 13.792,-9.068 13.792,-9.068 -3.124,2.057 -6.096,3.505 -8.763,4.496 -3.81,1.6 -7.467,2.667 -11.049,3.277 C 47.819,70.909 41.113,70.528 35.399,69.461 31.056,68.623 27.322,67.404 24.198,66.184 22.445,65.498 20.54,64.66 18.635,63.593 18.406,63.441 18.178,63.364 17.949,63.212 17.797,63.136 17.72,63.06 17.644,62.983 16.272,62.221 15.51,61.688 15.51,61.688 c 0,0 3.658,6.096 13.335,8.991 -2.286,2.896 -5.105,6.324 -5.105,6.324 C 6.901,76.47 0.5,65.422 0.5,65.422 0.5,40.886 11.473,20.998 11.473,20.998 22.446,12.769 32.885,12.997 32.885,12.997 l 0.762,0.914 c -13.716,3.962 -20.04,9.982 -20.04,9.982 0,0 1.676,-0.914 4.496,-2.21 8.153,-3.581 14.63,-4.572 17.297,-4.801 0.457,-0.076 0.838,-0.152 1.295,-0.152 4.648,-0.61 9.906,-0.762 15.392,-0.152 7.239,0.838 15.011,2.972 22.936,7.315 0,0 -6.02,-5.715 -18.973,-9.677 l 1.067,-1.219 c 0,0 10.439,-0.229 21.412,8.001 0,0 10.973,19.888 10.973,44.424 -0.002,0 -6.479,11.048 -23.319,11.582 z"
			style="opacity:1;fill:#7289da;fill-rule:nonzero;stroke:none;stroke-width:1;stroke-linecap:butt;stroke-linejoin:miter;stroke-miterlimit:10;stroke-dasharray:none"
			stroke-linecap="round"
			id="path1006" />
		<path
				d="m 30.751,41.419 c -4.343,0 -7.772,3.81 -7.772,8.458 0,4.648 3.505,8.458 7.772,8.458 4.343,0 7.772,-3.81 7.772,-8.458 0.076,-4.648 -3.429,-8.458 -7.772,-8.458 z m 27.812,0 c -4.343,0 -7.772,3.81 -7.772,8.458 0,4.648 3.505,8.458 7.772,8.458 4.343,0 7.772,-3.81 7.772,-8.458 0,-4.648 -3.428,-8.458 -7.772,-8.458 z"
				style="opacity:1;fill:#ffffff;fill-rule:nonzero;stroke:none;stroke-width:1;stroke-linecap:butt;stroke-linejoin:miter;stroke-miterlimit:10;stroke-dasharray:none"
				stroke-linecap="round"
				id="path1008" />
</g>
</svg>
