<?xml version="1.0" encoding="UTF-8" standalone="no"?>
<svg version="1.1" xmlns="http://www.w3.org/2000/svg" xmlns:xlink="http://www.w3.org/1999/xlink" preserveAspectRatio="xMidYMid meet" viewBox="0 0 380 380"
     width="380" height="380">
    <defs>
        <path d="M380 190C380 294.86 294.86 380 190 380C85.14 380 0 294.86 0 190C0 85.14 85.14 0 190 0C294.86 0 380 85.14 380 190Z" id="a7YHO8Gqy6"></path>
        <path d="M28.91 190.49C28.91 239.12 68.33 278.54 116.96 278.54C165.58 278.54 205 239.12 205 190.49C205 141.88 165.58 102.46 116.96 102.46C68.33 102.46 28.91 141.88 28.91 190.49Z"
              id="b3oH2fyFTl"></path>
        <path d="M255.03 271.86C233.01 271.86 215.16 235.21 215.16 190C215.16 144.79 233.01 108.14 255.03 108.14C277.04 108.14 294.89 144.79 294.89 190C294.89 235.21 277.04 271.86 255.03 271.86Z"
              id="h1PNH1VOM"></path>
        <path d="M322.37 264.48C313.75 264.48 306.76 231.35 306.76 190.49C306.76 149.64 313.75 116.51 322.37 116.51C330.99 116.51 337.97 149.64 337.97 190.49C337.97 231.35 330.99 264.48 322.37 264.48Z"
              id="c6je8JY7dz"></path>
    </defs>
    <g>
        <use xlink:href="#a7YHO8Gqy6" opacity="1" fill="#ffffff" fill-opacity="1"></use>
        <use xlink:href="#b3oH2fyFTl" opacity="1" fill="#000000" fill-opacity="1"></use>
        <use xlink:href="#h1PNH1VOM" opacity="1" fill="#000000" fill-opacity="1"></use>
        <use xlink:href="#c6je8JY7dz" opacity="1" fill="#000000" fill-opacity="1"></use>
    </g>
</svg>