<?xml version="1.0" encoding="UTF-8" standalone="no"?>
<!-- Generator: Adobe Illustrator 27.5.0, SVG Export Plug-In . SVG Version: 6.00 Build 0)  -->

<svg version="1.1"
	 id="svg5"
	 x="0px"
	 y="0px"
	 viewBox="0 0 856.98996 857.00004"
	 xml:space="preserve"
	 width="856.98999"
	 height="857"
	 xmlns="http://www.w3.org/2000/svg"
	 xmlns:svg="http://www.w3.org/2000/svg">
	<defs id="defs141"/>
    <style type="text/css" id="style132">
		.st0{stroke:#FFFFFF;stroke-miterlimit:10;}
		.st1{fill:#FFFFFF;}
	</style>
    <path class="st0" id="path134"
		  d="M 756.7,856.5 H 100.3 C 45.18,856.5 0.5,811.82 0.5,756.7 V 100.3 C 0.5,45.18 45.18,0.5 100.3,0.5 h 656.39 c 55.12,0 99.8,44.68 99.8,99.8 v 656.39 c 0.01,55.13 -44.67,99.81 -99.79,99.81 z"/>
    <g id="layer1" transform="translate(-359.02991,-225.1186)">
		<path id="path1009" class="st1" d="M 491.03,374.75 721.1,682.38 489.58,932.49 h 52.11 l 202.7,-218.98 163.77,218.98 h 177.32 L 842.46,607.56 1057.96,374.75 h -52.11 L 819.18,576.42 668.35,374.75 Z m 76.63,38.39 h 81.46 l 359.72,480.97 h -81.46 z"/>
	</g>
</svg>
