<?xml version="1.0" encoding="UTF-8" standalone="no"?>
<!DOCTYPE svg PUBLIC "-//W3C//DTD SVG 1.1//EN" "http://www.w3.org/Graphics/SVG/1.1/DTD/svg11.dtd">
<svg version="1.1" xmlns="http://www.w3.org/2000/svg" xmlns:xlink="http://www.w3.org/1999/xlink" preserveAspectRatio="xMidYMid meet" viewBox="-0.33133333333334036 0.29650000000000887 130.393 109.40700000000001" width="125.89" height="104.91"><defs><path d="M107.18 10.16C102.48 5.01 95.76 1.8 88.33 1.8C74.07 1.8 62.51 13.65 62.51 28.28C62.51 30.36 62.73 32.37 63.18 34.31C41.7 33.2 22.68 22.67 9.94 6.63C7.71 10.55 6.44 15.11 6.44 19.96C6.44 29.15 11 37.25 17.93 42C13.7 41.87 9.71 40.67 6.23 38.69C6.23 38.73 6.23 38.99 6.23 39.02C6.23 51.86 15.13 62.57 26.95 64.99C24.79 65.61 22.5 65.92 20.15 65.92C18.48 65.92 16.85 65.76 15.28 65.45C18.57 75.97 28.1 83.63 39.41 83.84C30.58 90.94 19.43 95.18 7.33 95.18C5.26 95.18 3.19 95.06 1.17 94.81C12.6 102.32 26.19 106.7 40.76 106.7C88.28 106.7 114.25 66.36 114.25 31.35C114.25 30.21 114.22 29.05 114.19 27.92C119.23 24.19 123.61 19.53 127.06 14.22C122.44 16.32 117.45 17.75 112.23 18.38C117.56 15.11 121.66 9.92 123.59 3.74C118.59 6.76 113.07 8.97 107.18 10.16Z" id="k4PZO8ZFYI"></path><path d="M6.81 24.37C7.33 27.58 8.42 30.6 9.97 33.31C11.69 33.75 13.48 34.02 15.32 34.08C11.75 31.63 8.82 28.29 6.81 24.37Z" id="d5lClQBza1"></path><path d="M122.18 7.25C122.72 6.12 123.21 4.95 123.59 3.74C119.9 5.97 115.92 7.76 111.72 9.02C111.04 9.53 110.34 10.02 109.62 10.46C114 9.93 118.21 8.83 122.18 7.25Z" id="aWBrTz4Pd"></path><path d="M113.92 18.15C113.15 18.78 112.38 19.41 111.58 20C111.62 21.13 111.64 22.28 111.64 23.43C111.64 58.43 85.67 98.78 38.15 98.78C29.81 98.78 21.79 97.34 14.31 94.7C12.03 95.01 9.7 95.18 7.33 95.18C5.25 95.18 3.19 95.06 1.17 94.81C12.6 102.32 26.18 106.7 40.76 106.7C88.28 106.7 114.25 66.36 114.25 31.35C114.25 30.21 114.22 29.05 114.18 27.92C119.23 24.19 123.61 19.53 127.06 14.22C122.94 16.09 118.53 17.42 113.92 18.15Z" id="eaUAvcdQy"></path><path d="M17.54 58C19.89 58 22.18 57.69 24.35 57.06C16.61 55.48 10.15 50.34 6.59 43.39C7.49 48.94 10.06 53.9 13.77 57.72C15 57.9 16.26 58 17.54 58Z" id="b2L2ZxKh5D"></path><path d="M15.28 65.45C17.46 72.42 22.38 78.11 28.74 81.23C31.59 79.71 34.29 77.93 36.8 75.91C28.72 75.77 21.56 71.8 16.93 65.71C16.37 65.64 15.82 65.56 15.28 65.45Z" id="b35oeihBL"></path><path d="M123.59 3.74C118.59 6.76 113.07 8.97 107.18 10.16C102.48 5.01 95.76 1.8 88.33 1.8C74.07 1.8 62.51 13.65 62.51 28.28C62.51 30.36 62.73 32.37 63.18 34.31C45.5 33.4 29.5 26.09 17.28 14.59C29.83 27.85 47.05 36.38 66.24 37.37C65.79 35.43 65.57 33.41 65.57 31.34C65.57 16.71 77.13 4.86 91.39 4.86C98.82 4.86 105.54 8.07 110.24 13.22" id="b23uMx42zZ"></path><path d="M107.18 10.16C102.48 5.01 95.76 1.8 88.33 1.8C74.07 1.8 62.51 13.65 62.51 28.28C62.51 30.36 62.73 32.37 63.18 34.31C41.7 33.2 22.68 22.67 9.94 6.63C7.71 10.55 6.44 15.11 6.44 19.96C6.44 29.15 11 37.25 17.93 42C13.7 41.87 9.71 40.67 6.23 38.69C6.23 38.73 6.23 38.99 6.23 39.02C6.23 51.86 15.13 62.57 26.95 64.99C24.79 65.61 22.5 65.92 20.15 65.92C18.48 65.92 16.85 65.76 15.28 65.45C18.57 75.97 28.1 83.63 39.41 83.84C30.58 90.94 19.43 95.18 7.33 95.18C5.26 95.18 3.19 95.06 1.17 94.81C12.6 102.32 26.19 106.7 40.76 106.7C88.28 106.7 114.25 66.36 114.25 31.35C114.25 30.21 114.22 29.05 114.19 27.92C119.23 24.19 123.61 19.53 127.06 14.22C122.44 16.32 117.45 17.75 112.23 18.38C117.56 15.11 121.66 9.92 123.59 3.74C118.59 6.76 113.07 8.97 107.18 10.16Z" id="a1n8xkFCXn"></path><path d="M61.5 34.18C68.72 34.23 75.26 37.47 79.78 42.66" id="b2yrm3d0SU"></path><path d="M101.35 14.6C101.35 17.23 99.22 19.35 96.6 19.35C93.98 19.35 91.85 17.23 91.85 14.6" id="a19YLAeM3r"></path><path d="M24.35 43.39L28.6 44.48" id="dP7irE3C"></path><path d="M31.76 65.45L36.02 66.55" id="k3zRG5rNgD"></path></defs><g><g><use xlink:href="#k4PZO8ZFYI" opacity="1" fill="#24a9e6" fill-opacity="1"></use><g><use xlink:href="#k4PZO8ZFYI" opacity="1" fill-opacity="0" stroke="#000000" stroke-width="1" stroke-opacity="0"></use></g></g><g><use xlink:href="#d5lClQBza1" opacity="1" fill="#0a8cdd" fill-opacity="1"></use><g><use xlink:href="#d5lClQBza1" opacity="1" fill-opacity="0" stroke="#000000" stroke-width="1" stroke-opacity="0"></use></g></g><g><use xlink:href="#aWBrTz4Pd" opacity="1" fill="#0a8cdd" fill-opacity="1"></use><g><use xlink:href="#aWBrTz4Pd" opacity="1" fill-opacity="0" stroke="#000000" stroke-width="1" stroke-opacity="0"></use></g></g><g><use xlink:href="#eaUAvcdQy" opacity="1" fill="#0a8cdd" fill-opacity="1"></use><g><use xlink:href="#eaUAvcdQy" opacity="1" fill-opacity="0" stroke="#000000" stroke-width="1" stroke-opacity="0"></use></g></g><g><use xlink:href="#b2L2ZxKh5D" opacity="1" fill="#0a8cdd" fill-opacity="1"></use><g><use xlink:href="#b2L2ZxKh5D" opacity="1" fill-opacity="0" stroke="#000000" stroke-width="1" stroke-opacity="0"></use></g></g><g><use xlink:href="#b35oeihBL" opacity="1" fill="#0a8cdd" fill-opacity="1"></use><g><use xlink:href="#b35oeihBL" opacity="1" fill-opacity="0" stroke="#000000" stroke-width="1" stroke-opacity="0"></use></g></g><g><use xlink:href="#b23uMx42zZ" opacity="1" fill="#3dc8f9" fill-opacity="1"></use><g><use xlink:href="#b23uMx42zZ" opacity="1" fill-opacity="0" stroke="#000000" stroke-width="1" stroke-opacity="0"></use></g></g><g><use xlink:href="#a1n8xkFCXn" opacity="1" fill="#000000" fill-opacity="0"></use><g><use xlink:href="#a1n8xkFCXn" opacity="1" fill-opacity="0" stroke="#33363a" stroke-width="3" stroke-opacity="1"></use></g></g><g><use xlink:href="#b2yrm3d0SU" opacity="1" fill="#000000" fill-opacity="0"></use><g><use xlink:href="#b2yrm3d0SU" opacity="1" fill-opacity="0" stroke="#33363a" stroke-width="3" stroke-opacity="1"></use></g></g><g><use xlink:href="#a19YLAeM3r" opacity="1" fill="#000000" fill-opacity="0"></use><g><use xlink:href="#a19YLAeM3r" opacity="1" fill-opacity="0" stroke="#33363a" stroke-width="3" stroke-opacity="1"></use></g></g><g><use xlink:href="#dP7irE3C" opacity="1" fill="#000000" fill-opacity="0"></use><g><use xlink:href="#dP7irE3C" opacity="1" fill-opacity="0" stroke="#33363a" stroke-width="3" stroke-opacity="1"></use></g></g><g><use xlink:href="#k3zRG5rNgD" opacity="1" fill="#000000" fill-opacity="0"></use><g><use xlink:href="#k3zRG5rNgD" opacity="1" fill-opacity="0" stroke="#33363a" stroke-width="3" stroke-opacity="1"></use></g></g></g></svg>