<?xml version="1.0" encoding="UTF-8" standalone="no"?>
<svg version="1.1" xmlns="http://www.w3.org/2000/svg" xmlns:xlink="http://www.w3.org/1999/xlink" preserveAspectRatio="xMidYMid meet"
     viewBox="-1.000000000000007 -0.9966796874999773 549.6335937500002 404.3466796875" width="545.63" height="400.35">
    <defs>
        <path d="M40.8 0C18.28 0.04 0.03 18.29 0 40.82C0 72.69 0 327.66 0 359.54C0.03 382.06 18.28 400.32 40.8 400.35C87.2 400.35 458.43 400.35 504.83 400.35C527.36 400.32 545.61 382.06 545.63 359.54C545.63 334.86 545.63 137.46 545.63 112.79C545.48 109.11 542.37 106.25 538.69 106.4C535.23 106.54 532.45 109.32 532.3 112.79C532.3 137.46 532.3 334.86 532.3 359.54C532.29 374.7 520 386.99 504.83 387.02C458.43 387.02 87.2 387.02 40.8 387.02C25.64 386.99 13.35 374.7 13.33 359.54C13.33 327.66 13.33 72.69 13.33 40.82C13.35 25.65 25.64 13.36 40.8 13.33C87.2 13.33 458.43 13.33 504.83 13.33C520 13.36 532.29 25.65 532.3 40.82C532.3 43.18 532.3 55.01 532.3 76.31C235.18 76.31 70.11 76.31 37.09 76.31C33.41 76.15 30.31 79.01 30.15 82.69C30 86.37 32.86 89.48 36.54 89.64C36.72 89.64 36.91 89.64 37.09 89.64C87.28 89.64 488.76 89.64 538.94 89.64C542.62 89.64 545.6 86.67 545.61 82.99C545.61 82.99 545.61 82.98 545.61 82.98C545.61 78.76 545.61 45.03 545.61 40.82C545.58 18.3 527.35 0.05 504.83 0C504.83 0 87.2 0 40.8 0Z"
              id="g2vD54iw3Z"></path>
        <path d="M479.97 51.48C480.41 51.48 480.84 51.44 481.26 51.36C481.69 51.27 482.11 51.14 482.52 50.97C482.93 50.81 483.32 50.6 483.68 50.36C486.74 48.32 487.57 44.18 485.53 41.12C485.28 40.76 485 40.42 484.69 40.11C484.38 39.8 484.04 39.53 483.68 39.28C483.31 39.04 482.93 38.84 482.52 38.68C482.12 38.51 481.69 38.38 481.26 38.29C479.08 37.86 476.83 38.54 475.26 40.11C472.65 42.67 472.61 46.85 475.17 49.46C475.5 49.8 475.87 50.1 476.27 50.36C476.63 50.6 477.01 50.81 477.42 50.97C478.23 51.31 479.1 51.49 479.97 51.48Z"
              id="bnsKD8y4b"></path>
        <path d="M444.19 50.97C444.6 50.81 444.99 50.61 445.36 50.37C445.72 50.13 446.07 49.85 446.38 49.54C447.62 48.29 448.32 46.59 448.33 44.83C448.34 44.39 448.29 43.95 448.19 43.52C448.11 43.1 447.98 42.68 447.81 42.28C447.65 41.88 447.45 41.49 447.21 41.12C446.96 40.76 446.68 40.41 446.38 40.1C446.07 39.79 445.72 39.51 445.36 39.27C444.99 39.03 444.6 38.83 444.19 38.67C443.79 38.5 443.38 38.37 442.95 38.28C442.09 38.1 441.2 38.1 440.35 38.28C439.92 38.37 439.5 38.5 439.1 38.67C438.69 38.83 438.31 39.03 437.94 39.27C437.58 39.51 437.23 39.79 436.92 40.1C434.31 42.69 434.3 46.91 436.9 49.51C438.15 50.77 439.86 51.48 441.64 51.47C442.08 51.48 442.52 51.44 442.95 51.36C443.38 51.27 443.79 51.14 444.19 50.97Z"
              id="a4v1evlpV"></path>
        <path d="M402.03 51.36C402.46 51.44 402.89 51.48 403.32 51.48C407 51.5 409.99 48.52 410 44.85C410 43.07 409.3 41.36 408.04 40.11C407.73 39.8 407.39 39.53 407.03 39.28C406.66 39.04 406.27 38.84 405.87 38.68C405.47 38.5 405.04 38.37 404.61 38.29C403.76 38.11 402.87 38.11 402.02 38.29C401.59 38.37 401.17 38.5 400.77 38.68C400.36 38.84 399.97 39.04 399.6 39.28C399.24 39.53 398.9 39.8 398.59 40.11C395.99 42.72 395.99 46.94 398.59 49.54C398.9 49.85 399.24 50.12 399.6 50.37C399.97 50.61 400.37 50.81 400.78 50.97C401.18 51.14 401.6 51.27 402.03 51.36Z"
              id="m77415HK3F"></path>
        <path d="M456.57 261.14C452.53 259.87 420.25 249.71 416.21 248.44C412.7 247.33 408.96 249.28 407.85 252.78C407.44 254.09 407.44 255.49 407.85 256.79C409.12 260.83 419.28 293.12 420.54 297.15C421.65 300.67 425.4 302.62 428.91 301.52C429.93 301.19 430.86 300.63 431.62 299.87C432.23 299.27 435.26 296.22 440.73 290.75C445.27 295.29 447.79 297.81 448.3 298.32C450.9 300.92 455.12 300.92 457.72 298.32C460.32 295.71 460.32 291.49 457.72 288.89C456.49 287.66 446.68 277.84 445.45 276.61C442.84 274.01 438.63 274.01 436.02 276.61C435.62 277.01 433.6 279.04 429.97 282.69L424.4 265.01C441.3 270.32 450.68 273.28 452.56 273.87C456.08 274.97 459.82 273.01 460.93 269.5C462.03 265.99 460.08 262.25 456.57 261.14Z"
              id="a3ZUhVmkcr"></path>
        <path d="M275.75 157.06C272.07 157.06 269.08 160.04 269.07 163.72C269.07 167.53 269.07 198.03 269.07 201.84C269.07 205.52 272.06 208.51 275.75 208.51C275.75 208.51 275.75 208.51 275.75 208.51C282.81 208.51 339.34 208.51 346.4 208.51C350.08 208.51 353.06 205.53 353.06 201.85C353.06 201.85 353.06 201.84 353.06 201.84C353.06 198.03 353.06 167.53 353.06 163.72C353.06 160.04 350.08 157.06 346.4 157.06C346.4 157.06 346.4 157.06 346.4 157.06C332.27 157.06 289.88 157.06 275.75 157.06ZM339.73 195.18L282.4 195.18L282.4 170.39L339.73 170.39L339.73 195.18Z"
              id="bD3km6fZv"></path>
        <path d="M469 163.72C469 160.05 466.02 157.07 462.35 157.06C455.28 157.06 398.74 157.06 391.68 157.06C388 157.06 385.02 160.04 385.02 163.72C385.02 163.72 385.02 163.72 385.02 163.72C385.02 167.53 385.02 198.03 385.02 201.84C385.01 205.52 387.99 208.5 391.67 208.51C391.67 208.51 391.67 208.51 391.68 208.51C398.74 208.51 455.28 208.51 462.35 208.51C466.02 208.5 469 205.52 469 201.84C469 194.22 469 167.53 469 163.72ZM455.67 195.18L398.32 195.18L398.32 170.39L455.65 170.39L455.67 195.18Z"
              id="bGtN4938O"></path>
    </defs>
    <g>
        <use xlink:href="#g2vD54iw3Z" opacity="1" fill="#000000" fill-opacity="1"></use>
        <use xlink:href="#bnsKD8y4b" opacity="1" fill="#000000" fill-opacity="1"></use>
        <use xlink:href="#a4v1evlpV" opacity="1" fill="#000000" fill-opacity="1"></use>
        <use xlink:href="#m77415HK3F" opacity="1" fill="#000000" fill-opacity="1"></use>
        <use xlink:href="#a3ZUhVmkcr" opacity="1" fill="#000000" fill-opacity="1"></use>
        <use xlink:href="#bD3km6fZv" opacity="1" fill="#000000" fill-opacity="1"></use>
        <use xlink:href="#bGtN4938O" opacity="1" fill="#000000" fill-opacity="1"></use>
    </g>
</svg>