<?xml version="1.0" encoding="UTF-8" standalone="no"?>
<svg version="1.1" xmlns="http://www.w3.org/2000/svg" xmlns:xlink="http://www.w3.org/1999/xlink" preserveAspectRatio="xMidYMid meet" viewBox="0 0 545 400"
     width="545" height="400">
    <defs>
        <path d="M476.88 0C514.5 0 545 30.5 545 68.13C545 134.5 545 265.5 545 331.88C545 369.5 514.5 400 476.88 400C381.5 400 163.5 400 68.13 400C30.5 400 0 369.5 0 331.88C0 265.5 0 134.5 0 68.13C0 30.5 30.5 0 68.13 0C163.5 0 381.5 0 476.88 0Z"
              id="h5Lxi0slYj"></path>
        <path d="M0 40.78C0 72.62 0 327.37 0 359.22C0.03 381.72 18.26 399.97 40.75 400C87.1 400 457.9 400 504.24 400C526.75 399.97 544.98 381.72 545 359.22C545 334.56 545 137.34 545 112.69C544.85 109.01 541.74 106.15 538.06 106.3C534.61 106.44 531.83 109.22 531.68 112.69C531.68 137.34 531.68 334.56 531.68 359.22C531.67 374.37 519.4 386.65 504.24 386.68C457.9 386.68 87.1 386.68 40.75 386.68C25.61 386.65 13.33 374.37 13.31 359.22C13.31 327.37 13.31 72.62 13.31 40.78C13.33 25.62 25.61 13.34 40.75 13.31C87.1 13.31 457.9 13.31 504.24 13.31C519.4 13.34 531.67 25.62 531.68 40.78C531.68 43.14 531.68 54.96 531.68 76.24C234.91 76.24 70.03 76.24 37.04 76.24C33.37 76.08 30.27 78.94 30.11 82.61C29.96 86.29 32.82 89.4 36.49 89.56C36.67 89.56 36.86 89.56 37.04 89.56C87.18 89.56 488.19 89.56 538.31 89.56C541.99 89.56 544.97 86.59 544.98 82.91C544.98 82.91 544.98 82.9 544.98 82.9C544.98 78.69 544.98 44.99 544.98 40.78C544.95 18.28 526.74 0.05 504.24 0C504.24 0 87.1 0 40.75 0C18.26 0.04 0.03 18.27 0 40.78Z"
              id="aDMT1Xc9F"></path>
        <path d="M477.71 51.79C478.14 51.7 478.55 51.58 478.96 51.41C479.37 51.25 479.75 51.04 480.11 50.8C483.13 48.79 483.96 44.69 481.94 41.66C481.69 41.31 481.41 40.97 481.11 40.66C480.8 40.36 480.46 40.09 480.11 39.84C479.74 39.61 479.37 39.41 478.96 39.25C478.56 39.08 478.14 38.95 477.71 38.86C475.56 38.44 473.33 39.11 471.78 40.66C469.2 43.2 469.16 47.33 471.69 49.91C472.02 50.25 472.38 50.55 472.78 50.8C473.13 51.04 473.51 51.25 473.91 51.41C474.72 51.74 475.58 51.92 476.44 51.91C476.87 51.91 477.3 51.87 477.71 51.79Z"
              id="h2rDbIl77S"></path>
        <path d="M442.2 50.81C442.56 50.58 442.9 50.3 443.21 49.99C444.43 48.76 445.13 47.08 445.14 45.33C445.15 44.9 445.1 44.46 445 44.04C444.92 43.62 444.79 43.21 444.62 42.81C444.46 42.42 444.27 42.03 444.03 41.66C443.78 41.31 443.5 40.96 443.21 40.65C442.9 40.35 442.56 40.07 442.2 39.83C441.83 39.6 441.45 39.4 441.04 39.24C440.65 39.07 440.24 38.94 439.82 38.85C438.96 38.68 438.08 38.68 437.24 38.85C436.82 38.94 436.4 39.07 436.01 39.24C435.6 39.4 435.22 39.6 434.86 39.83C434.5 40.07 434.16 40.35 433.85 40.65C431.27 43.22 431.26 47.39 433.83 49.96C435.07 51.21 436.76 51.91 438.52 51.9C438.95 51.91 439.39 51.87 439.82 51.79C440.24 51.7 440.65 51.58 441.04 51.41C441.45 51.25 441.83 51.05 442.2 50.81Z"
              id="aCC96VFO9"></path>
        <path d="M400.61 51.91C404.25 51.93 407.21 48.98 407.22 45.35C407.22 43.59 406.53 41.9 405.28 40.66C404.97 40.36 404.64 40.09 404.28 39.84C403.92 39.61 403.53 39.41 403.13 39.25C402.74 39.07 402.31 38.94 401.89 38.86C401.05 38.69 400.17 38.69 399.33 38.86C398.9 38.94 398.48 39.07 398.09 39.25C397.68 39.41 397.3 39.61 396.93 39.84C396.57 40.09 396.24 40.36 395.93 40.66C393.36 43.25 393.36 47.42 395.93 49.99C396.24 50.3 396.57 50.57 396.93 50.81C397.3 51.05 397.69 51.25 398.1 51.41C398.49 51.58 398.91 51.7 399.33 51.79C399.76 51.87 400.19 51.91 400.61 51.91Z"
              id="ejBKuwode"></path>
        <path d="M413.36 246.76C409.89 245.66 406.19 247.59 405.09 251.05C404.69 252.34 404.69 253.73 405.09 255.02C406.35 259.01 416.4 290.95 417.65 294.94C418.74 298.42 422.45 300.35 425.93 299.26C426.94 298.94 427.86 298.38 428.61 297.63C429.21 297.04 432.21 294.02 437.62 288.61C442.11 293.1 444.6 295.59 445.11 296.1C447.68 298.67 451.85 298.67 454.43 296.1C457 293.52 457 289.34 454.43 286.77C453.21 285.55 443.5 275.84 442.29 274.62C439.71 272.05 435.54 272.05 432.96 274.62C432.56 275.02 430.57 277.03 426.97 280.64C426.42 278.89 422.02 264.9 421.46 263.15C438.18 268.4 447.46 271.33 449.32 271.91C452.8 273 456.5 271.06 457.6 267.59C458.69 264.12 456.76 260.42 453.29 259.32C449.29 258.06 417.36 248.01 413.36 246.76Z"
              id="b1563aWOBV"></path>
        <path d="M267.8 162.95C267.8 166.72 267.8 196.89 267.8 200.66C267.8 204.3 270.76 207.25 274.41 207.25C274.41 207.25 274.41 207.25 274.41 207.25C281.4 207.25 337.32 207.25 344.3 207.25C347.94 207.25 350.89 204.31 350.89 200.67C350.89 200.67 350.89 200.66 350.89 200.66C350.89 196.89 350.89 166.72 350.89 162.95C350.89 159.31 347.94 156.36 344.3 156.36C344.3 156.36 344.3 156.36 344.3 156.36C330.32 156.36 288.39 156.36 274.41 156.36C270.77 156.36 267.81 159.31 267.8 162.95ZM280.99 194.07L280.99 169.54L337.7 169.54L337.7 194.07L280.99 194.07Z"
              id="aayENgnY8"></path>
        <path d="M459.01 156.36C452.01 156.36 396.08 156.36 389.1 156.36C385.46 156.36 382.51 159.31 382.51 162.95C382.51 162.95 382.51 162.95 382.51 162.95C382.51 166.72 382.51 196.89 382.51 200.66C382.5 204.3 385.45 207.24 389.09 207.25C389.09 207.25 389.09 207.25 389.1 207.25C396.08 207.25 452.01 207.25 459.01 207.25C462.64 207.24 465.59 204.3 465.59 200.66C465.59 193.12 465.59 166.72 465.59 162.95C465.59 159.32 462.64 156.37 459.01 156.36ZM395.66 194.07L395.66 169.54L452.38 169.54L452.4 194.07L395.66 194.07Z"
              id="e3EBdSLVV"></path>
    </defs>
    <g>
        <use xlink:href="#h5Lxi0slYj" opacity="1" fill="#ffffff" fill-opacity="1"></use>
        <use xlink:href="#aDMT1Xc9F" opacity="1" fill="#000000" fill-opacity="1"></use>
        <use xlink:href="#h2rDbIl77S" opacity="1" fill="#000000" fill-opacity="1"></use>
        <use xlink:href="#aCC96VFO9" opacity="1" fill="#000000" fill-opacity="1"></use>
        <use xlink:href="#ejBKuwode" opacity="1" fill="#000000" fill-opacity="1"></use>
        <use xlink:href="#b1563aWOBV" opacity="1" fill="#000000" fill-opacity="1"></use>
        <use xlink:href="#aayENgnY8" opacity="1" fill="#000000" fill-opacity="1"></use>
        <use xlink:href="#e3EBdSLVV" opacity="1" fill="#000000" fill-opacity="1"></use>
    </g>
</svg>