<?xml version="1.0" encoding="UTF-8" standalone="no"?>
<svg
        version="1.1"
        id="Layer_1"
        x="0px"
        y="0px"
        viewBox="0 0 480.39731 339.65329"
        xml:space="preserve"
        width="480.39731"
        height="339.65329"
        xmlns="http://www.w3.org/2000/svg"
        xmlns:svg="http://www.w3.org/2000/svg">
    <path
            style="fill:#ff0000;fill-opacity:1;stroke-width:0.901328"
            d="M 408.68864,332.7119 H 71.708683 c -35.449006,0 -64.1865241,-26.5188 -64.1865241,-59.23092 V 66.172325 c 0,-32.712122 28.7375181,-59.230924 64.1865241,-59.230924 H 408.68864 c 35.449,0 64.18653,26.518802 64.18653,59.230924 V 273.48098 c 0,32.71212 -28.73753,59.23092 -64.18653,59.23092 z"
            id="path824"/>
    <path
            style="fill:#da0000;fill-opacity:1;stroke-width:0.901328"
            d="M 440.78237,303.09687 H 87.75508 c -26.586989,0 -48.140128,-19.88909 -48.140128,-44.4234 V 36.556429 c 0,-8.689522 2.043565,-16.934005 5.686891,-24.368066 C 23.029047,21.481372 7.5221589,42.149725 7.5221589,66.172325 V 273.48098 c 0,32.71212 28.7375181,59.23092 64.1865241,59.23092 H 408.68864 c 26.03247,0 48.43006,-14.30966 58.50058,-34.86286 -8.05699,3.36118 -16.99031,5.24783 -26.40685,5.24783 z"
            id="path826"/>
    <polygon
            style="fill:#ffffff"
            points="187.591,144.835 358.614,256 187.591,367.165 "
            id="polygon828"
            transform="matrix(0.93827602,0,0,0.86583522,0,-51.827164)"/>
    <polygon
            style="fill:#e5e5e5"
            points="213.244,350.49 213.244,161.51 187.591,144.835 187.591,367.165 "
            id="polygon830"
            transform="matrix(0.93827602,0,0,0.86583522,0,-51.827164)"/>
    <path
            d="M 408.68864,0 H 71.708683 C 32.168793,0 0,29.685161 0,66.172325 v 55.593525 c 0,3.83306 3.3674727,6.9414 7.5221589,6.9414 4.1546861,0 7.5221591,-3.10748 7.5221591,-6.9414 V 66.172325 c 0,-28.832315 25.419774,-52.289523 56.664365,-52.289523 H 408.68864 c 31.2446,0 56.66437,23.457208 56.66437,52.289523 V 273.48098 c 0,28.83231 -25.41977,52.28952 -56.66437,52.28952 H 71.708683 c -31.244591,0 -56.664365,-23.45721 -56.664365,-52.28952 v -90.65547 c 0,-3.83305 -3.367473,-6.9414 -7.5221591,-6.9414 C 3.3674727,175.88411 0,178.99246 0,182.82551 v 90.65547 c 0,36.48716 32.168793,66.17232 71.708683,66.17232 H 408.68864 c 39.53989,0 71.70868,-29.68516 71.70868,-66.17232 V 66.172325 C 480.39732,29.685161 448.22853,0 408.68864,0 Z"
            id="path832"
            style="fill:#000000;fill-opacity:1;stroke-width:0.901328"/>
    <path
            d="m 276.21532,141.95801 c 3.48195,2.08753 8.14237,1.17667 10.40549,-2.03731 2.265,-3.21398 1.27605,-7.51285 -2.20777,-9.60298 L 180.10959,67.755935 c -4.91657,-2.9499 -11.61962,0.42513 -11.61962,5.81928 V 266.07635 c 0,5.39069 6.70117,8.77178 11.62056,5.81928 l 160.46678,-96.25057 c 4.48401,-2.68928 4.48308,-8.94927 0,-11.63942 l -56.16427,-33.68792 c -3.48288,-2.08839 4.47277,6.389 2.20777,9.60298 -2.26312,3.21398 -13.88931,-0.0528 -10.40549,2.03731 l 46.46062,27.86777 -139.14258,83.46132 V 86.366195 Z"
            id="path834"
            style="stroke-width:0.901328"/>
    <g
            id="g836"
            transform="matrix(0.93827602,0,0,0.86583522,0,-51.827164)">
</g>
    <g
            id="g838"
            transform="matrix(0.93827602,0,0,0.86583522,0,-51.827164)">
</g>
    <g
            id="g840"
            transform="matrix(0.93827602,0,0,0.86583522,0,-51.827164)">
</g>
    <g
            id="g842"
            transform="matrix(0.93827602,0,0,0.86583522,0,-51.827164)">
</g>
    <g
            id="g844"
            transform="matrix(0.93827602,0,0,0.86583522,0,-51.827164)">
</g>
    <g
            id="g846"
            transform="matrix(0.93827602,0,0,0.86583522,0,-51.827164)">
</g>
    <g
            id="g848"
            transform="matrix(0.93827602,0,0,0.86583522,0,-51.827164)">
</g>
    <g
            id="g850"
            transform="matrix(0.93827602,0,0,0.86583522,0,-51.827164)">
</g>
    <g
            id="g852"
            transform="matrix(0.93827602,0,0,0.86583522,0,-51.827164)">
</g>
    <g
            id="g854"
            transform="matrix(0.93827602,0,0,0.86583522,0,-51.827164)">
</g>
    <g
            id="g856"
            transform="matrix(0.93827602,0,0,0.86583522,0,-51.827164)">
</g>
    <g
            id="g858"
            transform="matrix(0.93827602,0,0,0.86583522,0,-51.827164)">
</g>
    <g
            id="g860"
            transform="matrix(0.93827602,0,0,0.86583522,0,-51.827164)">
</g>
    <g
            id="g862"
            transform="matrix(0.93827602,0,0,0.86583522,0,-51.827164)">
</g>
    <g
            id="g864"
            transform="matrix(0.93827602,0,0,0.86583522,0,-51.827164)">
</g>
    <ellipse
            style="fill:#000000;fill-opacity:1;stroke:#3ea639;stroke-width:0.174548;stroke-linecap:round;stroke-linejoin:round"
            id="path1846"
            cy="152.44505"
            cx="8.0177584"
            rx="7.712851"
            ry="7.2110887"/>
</svg>
