<?xml version="1.0" encoding="UTF-8" standalone="no"?>
<!-- Generator: Adobe Illustrator 19.0.0, SVG Export Plug-In . SVG Version: 6.00 Build 0)  -->

<svg
   version="1.1"
   id="Layer_1"
   x="0px"
   y="0px"
   viewBox="0 0 512 339.65329"
   xml:space="preserve"
   sodipodi:docname="youtube-svgrepo-com.svg"
   inkscape:version="1.1.1 (c3084ef, 2021-09-22)"
   width="512"
   height="339.65329"
   xmlns:inkscape="http://www.inkscape.org/namespaces/inkscape"
   xmlns:sodipodi="http://sodipodi.sourceforge.net/DTD/sodipodi-0.dtd"
   xmlns="http://www.w3.org/2000/svg"
   xmlns:svg="http://www.w3.org/2000/svg"><defs
   id="defs869" /><sodipodi:namedview
   id="namedview867"
   pagecolor="#ffffff"
   bordercolor="#666666"
   borderopacity="1.0"
   inkscape:pageshadow="2"
   inkscape:pageopacity="0.0"
   inkscape:pagecheckerboard="0"
   showgrid="false"
   inkscape:snap-grids="false"
   inkscape:snap-page="false"
   inkscape:zoom="1"
   inkscape:cx="113"
   inkscape:cy="135"
   inkscape:window-width="1920"
   inkscape:window-height="1080"
   inkscape:window-x="1680"
   inkscape:window-y="0"
   inkscape:window-maximized="1"
   inkscape:current-layer="Layer_1" />
<path
   style="fill:#ff0000;fill-opacity:1;stroke-width:0.930503"
   d="M 435.574,332.7119 H 76.426 c -37.781,0 -68.409,-26.5188 -68.409,-59.23092 V 66.172325 C 8.017,33.460203 38.645,6.941401 76.426,6.941401 h 359.148 c 37.781,0 68.409,26.518802 68.409,59.230924 V 273.48098 c 0,32.71212 -30.628,59.23092 -68.409,59.23092 z"
   id="path824" />
<path
   style="fill:#da0000;stroke-width:0.930503;fill-opacity:1"
   d="M 469.779,303.09687 H 93.528 c -28.336,0 -51.307,-19.88909 -51.307,-44.4234 V 36.556429 c 0,-8.689522 2.178,-16.934005 6.061,-24.368066 C 24.544,21.481372 8.017,42.149725 8.017,66.172325 V 273.48098 c 0,32.71212 30.628,59.23092 68.409,59.23092 h 359.148 c 27.745,0 51.616,-14.30966 62.349,-34.86286 -8.587,3.36118 -18.108,5.24783 -28.144,5.24783 z"
   id="path826" />
<polygon
   style="fill:#ffffff"
   points="187.591,144.835 358.614,256 187.591,367.165 "
   id="polygon828"
   transform="matrix(1,0,0,0.86583522,0,-51.827164)" />
<polygon
   style="fill:#e5e5e5"
   points="187.591,144.835 187.591,367.165 213.244,350.49 213.244,161.51 "
   id="polygon830"
   transform="matrix(1,0,0,0.86583522,0,-51.827164)" />
<path
   d="M 435.574,0 H 76.426 C 34.285,0 0,29.685161 0,66.172325 v 55.593525 c 0,3.83306 3.589,6.9414 8.017,6.9414 4.428,0 8.017,-3.10748 8.017,-6.9414 V 66.172325 c 0,-28.832315 27.092,-52.289523 60.392,-52.289523 h 359.148 c 33.3,0 60.392,23.457208 60.392,52.289523 V 273.48098 c 0,28.83231 -27.092,52.28952 -60.392,52.28952 H 76.426 c -33.3,0 -60.392,-23.45721 -60.392,-52.28952 v -90.65547 c 0,-3.83305 -3.589,-6.9414 -8.017,-6.9414 -4.428,0 -8.017,3.10835 -8.017,6.9414 v 90.65547 c 0,36.48716 34.285,66.17232 76.426,66.17232 h 359.148 c 42.141,0 76.426,-29.68516 76.426,-66.17232 V 66.172325 C 512,29.685161 477.715,0 435.574,0 Z"
   id="path832"
   sodipodi:nodetypes="sssssssssssssssssssssss"
   style="fill:#000000;fill-opacity:1;stroke-width:0.930503" />
<path
   d="m 294.386,141.95801 c 3.711,2.08753 8.678,1.17667 11.09,-2.03731 2.414,-3.21398 1.36,-7.51285 -2.353,-9.60298 L 191.958,67.755935 c -5.24,-2.9499 -12.384,0.42513 -12.384,5.81928 V 266.07635 c 0,5.39069 7.142,8.77178 12.385,5.81928 l 171.023,-96.25057 c 4.779,-2.68928 4.778,-8.94927 0,-11.63942 l -59.859,-33.68792 c -3.712,-2.08839 4.767,6.389 2.353,9.60298 -2.412,3.21398 -14.803,-0.0528 -11.09,2.03731 l 49.517,27.86777 -148.296,83.46132 V 86.366195 Z"
   id="path834"
   sodipodi:nodetypes="ccccsscccccccccc"
   style="stroke-width:0.930503" />
<g
   id="g836"
   transform="matrix(1,0,0,0.86583522,0,-51.827164)">
</g>
<g
   id="g838"
   transform="matrix(1,0,0,0.86583522,0,-51.827164)">
</g>
<g
   id="g840"
   transform="matrix(1,0,0,0.86583522,0,-51.827164)">
</g>
<g
   id="g842"
   transform="matrix(1,0,0,0.86583522,0,-51.827164)">
</g>
<g
   id="g844"
   transform="matrix(1,0,0,0.86583522,0,-51.827164)">
</g>
<g
   id="g846"
   transform="matrix(1,0,0,0.86583522,0,-51.827164)">
</g>
<g
   id="g848"
   transform="matrix(1,0,0,0.86583522,0,-51.827164)">
</g>
<g
   id="g850"
   transform="matrix(1,0,0,0.86583522,0,-51.827164)">
</g>
<g
   id="g852"
   transform="matrix(1,0,0,0.86583522,0,-51.827164)">
</g>
<g
   id="g854"
   transform="matrix(1,0,0,0.86583522,0,-51.827164)">
</g>
<g
   id="g856"
   transform="matrix(1,0,0,0.86583522,0,-51.827164)">
</g>
<g
   id="g858"
   transform="matrix(1,0,0,0.86583522,0,-51.827164)">
</g>
<g
   id="g860"
   transform="matrix(1,0,0,0.86583522,0,-51.827164)">
</g>
<g
   id="g862"
   transform="matrix(1,0,0,0.86583522,0,-51.827164)">
</g>
<g
   id="g864"
   transform="matrix(1,0,0,0.86583522,0,-51.827164)">
</g>
<ellipse
   style="fill:#000000;fill-opacity:1;stroke:#3ea639;stroke-width:0.180198;stroke-linecap:round;stroke-linejoin:round"
   id="path1846"
   cy="152.44505"
   cx="8.5452023"
   rx="8.2202368"
   ry="7.2110887" /></svg>
